<svg width="128" height="128" viewBox="0 0 128 128" fill="none" xmlns="http://www.w3.org/2000/svg">
<path d="M2 30V70C2.00185 71.5907 2.63459 73.1158 3.75941 74.2406C4.88422 75.3654 6.40927 75.9981 8 76H34V80H30C29.4696 80 28.9609 80.2107 28.5858 80.5858C28.2107 80.9609 28 81.4696 28 82C28 82.5304 28.2107 83.0391 28.5858 83.4142C28.9609 83.7893 29.4696 84 30 84H56C56.5304 84 57.0391 83.7893 57.4142 83.4142C57.7893 83.0391 58 82.5304 58 82C58 81.4696 57.7893 80.9609 57.4142 80.5858C57.0391 80.2107 56.5304 80 56 80H52V76H78C79.5907 75.9981 81.1158 75.3654 82.2406 74.2406C83.3654 73.1158 83.9981 71.5907 84 70V30C83.9981 28.4093 83.3654 26.8842 82.2406 25.7594C81.1158 24.6346 79.5907 24.0019 78 24H8C6.40927 24.0019 4.88422 24.6346 3.75941 25.7594C2.63459 26.8842 2.00185 28.4093 2 30ZM48 80H38V76H48V80ZM80 30V70C79.9995 70.5303 79.7886 71.0387 79.4136 71.4136C79.0387 71.7886 78.5303 71.9995 78 72H8C7.46973 71.9995 6.96133 71.7886 6.58637 71.4136C6.21141 71.0387 6.00053 70.5303 6 70V30C6.00053 29.4697 6.21141 28.9613 6.58637 28.5864C6.96133 28.2114 7.46973 28.0005 8 28H78C78.5303 28.0005 79.0387 28.2114 79.4136 28.5864C79.7886 28.9613 79.9995 29.4697 80 30ZM120 24H96C94.4093 24.0019 92.8842 24.6346 91.7594 25.7594C90.6346 26.8842 90.0019 28.4093 90 30V94C90.0019 95.5907 90.6346 97.1158 91.7594 98.2406C92.8842 99.3654 94.4093 99.9981 96 100H120C121.591 99.9981 123.116 99.3654 124.241 98.2406C125.365 97.1158 125.998 95.5907 126 94V30C125.998 28.4093 125.365 26.8842 124.241 25.7594C123.116 24.6346 121.591 24.0019 120 24ZM122 94C121.999 94.5303 121.789 95.0387 121.414 95.4136C121.039 95.7886 120.53 95.9995 120 96H96C95.4697 95.9995 94.9613 95.7886 94.5864 95.4136C94.2114 95.0387 94.0005 94.5303 94 94V68H122V94ZM122 64H94V60H122V64ZM122 56H94V30C94.0005 29.4697 94.2114 28.9613 94.5864 28.5864C94.9613 28.2114 95.4697 28.0005 96 28H120C120.53 28.0005 121.039 28.2114 121.414 28.5864C121.789 28.9613 121.999 29.4697 122 30V56Z" fill="white"/>
<path d="M121.001 36H107.001C106.47 36 105.962 36.2107 105.587 36.5858C105.212 36.9609 105.001 37.4696 105.001 38C105.001 38.5304 105.212 39.0391 105.587 39.4142C105.962 39.7893 106.47 40 107.001 40H121.001C121.531 40 122.04 39.7893 122.415 39.4142C122.79 39.0391 123.001 38.5304 123.001 38C123.001 37.4696 122.79 36.9609 122.415 36.5858C122.04 36.2107 121.531 36 121.001 36ZM121.001 44H107.001C106.47 44 105.962 44.2107 105.587 44.5858C105.212 44.9609 105.001 45.4696 105.001 46C105.001 46.5304 105.212 47.0391 105.587 47.4142C105.962 47.7893 106.47 48 107.001 48H121.001C121.531 48 122.04 47.7893 122.415 47.4142C122.79 47.0391 123.001 46.5304 123.001 46C123.001 45.4696 122.79 44.9609 122.415 44.5858C122.04 44.2107 121.531 44 121.001 44ZM110.001 88H118.001C118.531 88 119.04 87.7893 119.415 87.4142C119.79 87.0391 120.001 86.5304 120.001 86V78C120.001 77.4696 119.79 76.9609 119.415 76.5858C119.04 76.2107 118.531 76 118.001 76H110.001C109.47 76 108.962 76.2107 108.587 76.5858C108.212 76.9609 108.001 77.4696 108.001 78V86C108.001 86.5304 108.212 87.0391 108.587 87.4142C108.962 87.7893 109.47 88 110.001 88ZM112.001 80H116.001V84H112.001V80ZM4.58392 102.06C4.94694 102.656 5.45833 103.149 6.06821 103.489C6.6781 103.829 7.36568 104.005 8.06392 104H89.9379C90.6363 104.005 91.3241 103.829 91.9342 103.489C92.5443 103.149 93.0558 102.657 93.4189 102.06C93.7748 101.482 93.9747 100.822 93.9993 100.143C94.0238 99.4652 93.8721 98.7921 93.5589 98.19L89.4379 90.19C89.0952 89.5266 88.5757 88.9709 87.9368 88.5844C87.2979 88.1979 86.5646 87.9957 85.8179 88H12.1849C11.4382 87.9957 10.7049 88.1979 10.066 88.5844C9.42716 88.9709 8.90763 89.5266 8.56492 90.19L4.44292 98.19C4.12975 98.7921 3.97803 99.4652 4.00257 100.143C4.0271 100.822 4.22806 101.482 4.58392 102.06ZM12.1859 92L85.8819 92.021L90.0049 99.976C89.9929 100 89.9529 100 89.9379 100L8.00092 100.021L12.1859 92ZM54.6579 47.172C55.0329 47.5473 55.5417 47.7582 56.0722 47.7584C56.6028 47.7586 57.1116 47.548 57.4869 47.173C57.8622 46.798 58.0731 46.2892 58.0733 45.7587C58.0735 45.2282 57.8629 44.7193 57.4879 44.344L54.6579 41.514C54.2828 41.139 53.774 40.9284 53.2436 40.9284C52.7131 40.9285 52.2044 41.1394 51.8294 41.5145C51.4544 41.8896 51.2438 42.3984 51.2439 42.9289C51.244 43.4593 51.4548 43.968 51.8299 44.343L54.6579 47.172ZM43.3439 58.485C43.7189 58.8603 44.2277 59.0712 44.7582 59.0714C45.2888 59.0716 45.7976 58.861 46.1729 58.486C46.5482 58.111 46.7591 57.6022 46.7593 57.0717C46.7595 56.5412 46.5489 56.0323 46.1739 55.657L43.3439 52.828C42.9667 52.4637 42.4615 52.2621 41.9371 52.2667C41.4127 52.2712 40.9111 52.4815 40.5403 52.8524C40.1695 53.2232 39.9591 53.7248 39.9546 54.2492C39.95 54.7736 40.1516 55.2788 40.5159 55.656L43.3439 58.485ZM51.8299 55.656C52.2071 56.0203 52.7123 56.2219 53.2367 56.2173C53.7611 56.2128 54.2627 56.0025 54.6336 55.6316C55.0044 55.2608 55.2147 54.7592 55.2193 54.2348C55.2238 53.7104 55.0222 53.2052 54.6579 52.828L46.1729 44.344C45.7957 43.9797 45.2905 43.7781 44.7661 43.7827C44.2417 43.7872 43.7401 43.9975 43.3693 44.3684C42.9985 44.7392 42.7881 45.2408 42.7836 45.7652C42.779 46.2896 42.9806 46.7948 43.3449 47.172L51.8299 55.656Z" fill="white"/>
</svg>
